<?xml version="1.0" encoding="UTF-8"?>
<svg id="Calque_1" xmlns="http://www.w3.org/2000/svg" viewBox="0 0 1731.21 280.59">
  <defs>
    <style>
      .cls-1 {
        fill: #0d0d0d;
      }
    </style>
  </defs>
  <g>
    <path class="cls-1" d="M576.96,244.65c-19.99-23.96-29.98-57.46-29.98-100.51s9.99-76.87,29.98-100.71,48.81-35.75,86.48-35.75,66.43,11.92,86.29,35.75c19.85,23.83,29.79,57.4,29.79,100.71s-9.93,76.87-29.79,100.71c-19.86,23.83-48.62,35.75-86.29,35.75s-66.5-11.98-86.48-35.94ZM718.02,219.86c12.3-17.68,18.45-42.92,18.45-75.72s-6.15-58.04-18.45-75.72c-12.3-17.68-30.5-26.52-54.58-26.52s-42.35,8.91-54.77,26.71c-12.43,17.81-18.64,42.99-18.64,75.53s6.28,58.04,18.83,75.72c12.55,17.68,30.75,26.52,54.58,26.52s42.28-8.84,54.58-26.52Z"/>
    <path class="cls-1" d="M841.4,253.49c-16.14-18.06-24.22-43.11-24.22-75.14s8.2-55.67,24.6-73.22c16.4-17.55,39.59-26.33,69.57-26.33,25.37,0,45.87,6.28,61.5,18.83,15.63,12.56,24.6,30.11,26.91,52.66h-39.97c-2.82-13.58-8.33-23.96-16.53-31.13-8.2-7.17-18.97-10.76-32.29-10.76-17.68,0-31.13,6.15-40.36,18.45s-13.84,29.85-13.84,52.66,4.61,40.36,13.84,52.66,22.68,18.45,40.36,18.45c13.07,0,23.76-3.59,32.09-10.76,8.32-7.17,13.9-17.55,16.72-31.13h39.97c-2.31,22.55-11.21,40.17-26.71,52.85-15.51,12.68-36.2,19.03-62.08,19.03-30.24,0-53.43-9.03-69.57-27.1Z"/>
    <path class="cls-1" d="M1039.35,0h39.21v276.75h-39.21V0Z"/>
    <path class="cls-1" d="M1136.4,266.18c-11.41-9.35-17.1-22.23-17.1-38.63s5.38-28.57,16.14-38.05c10.76-9.48,28.57-15.76,53.43-18.83l62.65-7.69v-13.45c0-14.09-3.98-24.73-11.92-31.9-7.95-7.17-19.22-10.76-33.82-10.76s-24.92,3.33-32.48,9.99c-7.56,6.67-11.47,16.53-11.72,29.6h-38.44c.25-22.04,7.75-38.82,22.49-50.35,14.73-11.53,35.3-17.3,61.69-17.3s48.43,6.15,62.27,18.45c13.84,12.3,20.76,30.24,20.76,53.81v125.69h-31.13v-18.07l3.08-17.68h-4.61c-5.64,11.28-14.55,20.63-26.71,28.06-12.17,7.44-27.61,11.15-46.32,11.15-20.76,0-36.84-4.67-48.24-14.03ZM1167.54,245.23c6.53,5.13,15.43,7.69,26.71,7.69,17.16,0,31-4.86,41.51-14.61,10.5-9.74,15.76-22.54,15.76-38.44v-12.68l-55.35,6.15c-13.33,1.8-23.06,5.13-29.21,9.99-6.15,4.87-9.22,11.53-9.22,19.99,0,9.48,3.27,16.79,9.8,21.91Z"/>
    <path class="cls-1" d="M1333.78,82.64h31.52v15.76l-2.69,21.52h3.46c4.1-12.3,11.21-22.23,21.33-29.79,10.12-7.56,22.87-11.34,38.25-11.34,10.76,0,19.73,1.54,26.91,4.61v36.9c-8.71-3.08-17.56-4.61-26.52-4.61-16.66,0-29.66,5.38-39.01,16.14-9.36,10.76-14.03,25.88-14.03,45.36v99.55h-39.21V82.64Z"/>
    <path class="cls-1" d="M1483.68,82.64h39.21v194.11h-39.21V82.64ZM1524.94,40.47c0,12.03-9.75,21.79-21.79,21.79s-21.79-9.75-21.79-21.79,9.75-21.79,21.79-21.79,21.79,9.75,21.79,21.79Z"/>
    <path class="cls-1" d="M1560.93,220.63h37.67c2.05,10.76,7.17,19.03,15.38,24.79,8.2,5.77,19.34,8.65,33.44,8.65s24.41-2.62,32.48-7.88c8.07-5.25,12.11-12.62,12.11-22.1,0-7.43-2.82-13.51-8.46-18.26-5.64-4.74-14.61-8.39-26.91-10.96l-39.97-6.92c-17.17-3.59-30.11-9.8-38.82-18.64-8.71-8.84-13.07-19.54-13.07-32.09,0-17.68,7.17-31.84,21.52-42.47,14.35-10.63,34.21-15.95,59.58-15.95s43.18,5,57.27,14.99c14.09,9.99,22.04,24.47,23.83,43.43h-37.67c-1.54-10.5-6.15-18.51-13.84-24.02-7.69-5.51-18.2-8.26-31.52-8.26s-23.77,2.5-31.33,7.5c-7.56,5-11.34,11.47-11.34,19.41,0,6.67,2.82,12.17,8.46,16.53,5.63,4.36,14.35,7.69,26.14,9.99l38.44,6.92c19.22,3.84,33.5,10.38,42.86,19.6,9.35,9.22,14.03,20.5,14.03,33.82-.26,18.97-7.95,33.96-23.06,44.97-15.12,11.02-35.75,16.53-61.88,16.53-51.76,0-80.21-19.85-85.33-59.58Z"/>
  </g>
  <g>
    <path class="cls-1" d="M367.03,0c16.88,27.17,28.94,59.38,34.63,94.54-27.03-47.8-95.16-81.74-174.93-81.74S78.83,46.74,51.8,94.54C57.48,59.38,69.54,27.17,86.42,0,33.78,32.7,0,83.39,0,140.29s33.78,107.6,86.42,140.3c-16.88-27.17-28.94-59.38-34.63-94.54,27.03,47.8,95.16,81.74,174.93,81.74s147.9-33.94,174.93-81.74c-5.69,35.17-17.74,67.38-34.63,94.54,52.64-32.7,86.42-83.39,86.42-140.3S419.66,32.7,367.03,0ZM226.72,237.65c-53.76,0-97.36-43.59-97.36-97.36s43.6-97.35,97.36-97.35,97.35,43.59,97.35,97.35-43.59,97.36-97.35,97.36Z"/>
    <path class="cls-1" d="M270.93,96.09c-10.31-16.59-26.27-27.25-44.21-27.25s-33.9,10.66-44.21,27.25c-16.59,10.31-27.25,26.27-27.25,44.21s10.66,33.9,27.25,44.21c10.31,16.59,26.27,27.25,44.21,27.25s33.9-10.66,44.21-27.25c16.59-10.31,27.25-26.27,27.25-44.21s-10.66-33.9-27.25-44.21Z"/>
  </g>
</svg>