<?xml version="1.0" encoding="UTF-8"?>
<svg id="Calque_1" xmlns="http://www.w3.org/2000/svg" viewBox="0 0 534.71 330.87">
  <defs>
    <style>
      .cls-1 {
        fill: #f7e7e2;
      }
    </style>
  </defs>
  <path class="cls-1" d="M432.8,0c19.91,32.03,34.12,70.02,40.83,111.48-31.87-56.37-112.21-96.39-206.28-96.39S92.95,55.11,61.08,111.48C67.78,70.02,82,32.03,101.91,0,39.84,38.57,0,98.33,0,165.43s39.84,126.88,101.91,165.45c-19.91-32.03-34.12-70.01-40.83-111.48,31.87,56.37,112.21,96.39,206.28,96.39s174.4-40.02,206.28-96.39c-6.71,41.47-20.92,79.45-40.83,111.48,62.07-38.56,101.91-98.33,101.91-165.45S494.87,38.57,432.8,0ZM267.35,280.24c-63.4,0-114.81-51.4-114.81-114.81s51.41-114.79,114.81-114.79,114.79,51.4,114.79,114.79-51.4,114.81-114.79,114.81Z"/>
  <path class="cls-1" d="M319.48,113.3c-12.16-19.56-30.98-32.14-52.13-32.14s-39.98,12.57-52.13,32.14c-19.56,12.16-32.14,30.98-32.14,52.13s12.57,39.98,32.14,52.13c12.16,19.56,30.98,32.14,52.13,32.14s39.98-12.57,52.13-32.14c19.56-12.16,32.14-30.98,32.14-52.13s-12.57-39.98-32.14-52.13Z"/>
</svg>